<mxfile host="app.diagrams.net" modified="2022-03-21T04:54:14.072Z" agent="5.0 (Windows NT 10.0; Win64; x64) AppleWebKit/537.36 (KHTML, like Gecko) Chrome/99.0.4844.74 Safari/537.36" etag="RY8hEf5I4vnlaPU2ozXT" version="17.1.3" type="github">
  <diagram id="aar-Qq9W_gWKysMyioDr" name="Page-1">
    <mxGraphModel dx="782" dy="436" grid="1" gridSize="10" guides="1" tooltips="1" connect="1" arrows="1" fold="1" page="1" pageScale="1" pageWidth="827" pageHeight="1169" math="0" shadow="0">
      <root>
        <mxCell id="0" />
        <mxCell id="1" parent="0" />
        <mxCell id="j1e2Vd287yCiI281AwoS-1" value="" style="shape=table;html=1;whiteSpace=wrap;startSize=0;container=1;collapsible=0;childLayout=tableLayout;" vertex="1" parent="1">
          <mxGeometry x="230" y="250" width="60" height="130" as="geometry" />
        </mxCell>
        <mxCell id="j1e2Vd287yCiI281AwoS-2" value="" style="shape=tableRow;horizontal=0;startSize=0;swimlaneHead=0;swimlaneBody=0;top=0;left=0;bottom=0;right=0;collapsible=0;dropTarget=0;fillColor=none;points=[[0,0.5],[1,0.5]];portConstraint=eastwest;" vertex="1" parent="j1e2Vd287yCiI281AwoS-1">
          <mxGeometry width="60" height="50" as="geometry" />
        </mxCell>
        <mxCell id="j1e2Vd287yCiI281AwoS-3" value="TOPIC 1" style="shape=partialRectangle;html=1;whiteSpace=wrap;connectable=0;fillColor=none;top=0;left=0;bottom=0;right=0;overflow=hidden;" vertex="1" parent="j1e2Vd287yCiI281AwoS-2">
          <mxGeometry width="60" height="50" as="geometry">
            <mxRectangle width="60" height="50" as="alternateBounds" />
          </mxGeometry>
        </mxCell>
        <mxCell id="j1e2Vd287yCiI281AwoS-6" value="" style="shape=tableRow;horizontal=0;startSize=0;swimlaneHead=0;swimlaneBody=0;top=0;left=0;bottom=0;right=0;collapsible=0;dropTarget=0;fillColor=none;points=[[0,0.5],[1,0.5]];portConstraint=eastwest;" vertex="1" parent="j1e2Vd287yCiI281AwoS-1">
          <mxGeometry y="50" width="60" height="40" as="geometry" />
        </mxCell>
        <mxCell id="j1e2Vd287yCiI281AwoS-7" value="TOPIC 2" style="shape=partialRectangle;html=1;whiteSpace=wrap;connectable=0;fillColor=none;top=0;left=0;bottom=0;right=0;overflow=hidden;" vertex="1" parent="j1e2Vd287yCiI281AwoS-6">
          <mxGeometry width="60" height="40" as="geometry">
            <mxRectangle width="60" height="40" as="alternateBounds" />
          </mxGeometry>
        </mxCell>
        <mxCell id="j1e2Vd287yCiI281AwoS-10" value="" style="shape=tableRow;horizontal=0;startSize=0;swimlaneHead=0;swimlaneBody=0;top=0;left=0;bottom=0;right=0;collapsible=0;dropTarget=0;fillColor=none;points=[[0,0.5],[1,0.5]];portConstraint=eastwest;" vertex="1" parent="j1e2Vd287yCiI281AwoS-1">
          <mxGeometry y="90" width="60" height="40" as="geometry" />
        </mxCell>
        <mxCell id="j1e2Vd287yCiI281AwoS-11" value="TOPIC3" style="shape=partialRectangle;html=1;whiteSpace=wrap;connectable=0;fillColor=none;top=0;left=0;bottom=0;right=0;overflow=hidden;" vertex="1" parent="j1e2Vd287yCiI281AwoS-10">
          <mxGeometry width="60" height="40" as="geometry">
            <mxRectangle width="60" height="40" as="alternateBounds" />
          </mxGeometry>
        </mxCell>
        <mxCell id="j1e2Vd287yCiI281AwoS-14" value="" style="shape=table;html=1;whiteSpace=wrap;startSize=0;container=1;collapsible=0;childLayout=tableLayout;" vertex="1" parent="1">
          <mxGeometry x="430" y="60" width="60" height="120" as="geometry" />
        </mxCell>
        <mxCell id="j1e2Vd287yCiI281AwoS-15" value="" style="shape=tableRow;horizontal=0;startSize=0;swimlaneHead=0;swimlaneBody=0;top=0;left=0;bottom=0;right=0;collapsible=0;dropTarget=0;fillColor=none;points=[[0,0.5],[1,0.5]];portConstraint=eastwest;" vertex="1" parent="j1e2Vd287yCiI281AwoS-14">
          <mxGeometry width="60" height="40" as="geometry" />
        </mxCell>
        <mxCell id="j1e2Vd287yCiI281AwoS-16" value="M1" style="shape=partialRectangle;html=1;whiteSpace=wrap;connectable=0;fillColor=none;top=0;left=0;bottom=0;right=0;overflow=hidden;" vertex="1" parent="j1e2Vd287yCiI281AwoS-15">
          <mxGeometry width="60" height="40" as="geometry">
            <mxRectangle width="60" height="40" as="alternateBounds" />
          </mxGeometry>
        </mxCell>
        <mxCell id="j1e2Vd287yCiI281AwoS-17" value="" style="shape=tableRow;horizontal=0;startSize=0;swimlaneHead=0;swimlaneBody=0;top=0;left=0;bottom=0;right=0;collapsible=0;dropTarget=0;fillColor=none;points=[[0,0.5],[1,0.5]];portConstraint=eastwest;" vertex="1" parent="j1e2Vd287yCiI281AwoS-14">
          <mxGeometry y="40" width="60" height="40" as="geometry" />
        </mxCell>
        <mxCell id="j1e2Vd287yCiI281AwoS-18" value="M2" style="shape=partialRectangle;html=1;whiteSpace=wrap;connectable=0;fillColor=none;top=0;left=0;bottom=0;right=0;overflow=hidden;" vertex="1" parent="j1e2Vd287yCiI281AwoS-17">
          <mxGeometry width="60" height="40" as="geometry">
            <mxRectangle width="60" height="40" as="alternateBounds" />
          </mxGeometry>
        </mxCell>
        <mxCell id="j1e2Vd287yCiI281AwoS-19" value="" style="shape=tableRow;horizontal=0;startSize=0;swimlaneHead=0;swimlaneBody=0;top=0;left=0;bottom=0;right=0;collapsible=0;dropTarget=0;fillColor=none;points=[[0,0.5],[1,0.5]];portConstraint=eastwest;" vertex="1" parent="j1e2Vd287yCiI281AwoS-14">
          <mxGeometry y="80" width="60" height="40" as="geometry" />
        </mxCell>
        <mxCell id="j1e2Vd287yCiI281AwoS-20" value="M3" style="shape=partialRectangle;html=1;whiteSpace=wrap;connectable=0;fillColor=none;top=0;left=0;bottom=0;right=0;overflow=hidden;" vertex="1" parent="j1e2Vd287yCiI281AwoS-19">
          <mxGeometry width="60" height="40" as="geometry">
            <mxRectangle width="60" height="40" as="alternateBounds" />
          </mxGeometry>
        </mxCell>
        <mxCell id="j1e2Vd287yCiI281AwoS-21" value="" style="shape=table;html=1;whiteSpace=wrap;startSize=0;container=1;collapsible=0;childLayout=tableLayout;" vertex="1" parent="1">
          <mxGeometry x="430" y="250" width="60" height="120" as="geometry" />
        </mxCell>
        <mxCell id="j1e2Vd287yCiI281AwoS-22" value="" style="shape=tableRow;horizontal=0;startSize=0;swimlaneHead=0;swimlaneBody=0;top=0;left=0;bottom=0;right=0;collapsible=0;dropTarget=0;fillColor=none;points=[[0,0.5],[1,0.5]];portConstraint=eastwest;" vertex="1" parent="j1e2Vd287yCiI281AwoS-21">
          <mxGeometry width="60" height="40" as="geometry" />
        </mxCell>
        <mxCell id="j1e2Vd287yCiI281AwoS-23" value="M4" style="shape=partialRectangle;html=1;whiteSpace=wrap;connectable=0;fillColor=none;top=0;left=0;bottom=0;right=0;overflow=hidden;" vertex="1" parent="j1e2Vd287yCiI281AwoS-22">
          <mxGeometry width="60" height="40" as="geometry">
            <mxRectangle width="60" height="40" as="alternateBounds" />
          </mxGeometry>
        </mxCell>
        <mxCell id="j1e2Vd287yCiI281AwoS-24" value="" style="shape=tableRow;horizontal=0;startSize=0;swimlaneHead=0;swimlaneBody=0;top=0;left=0;bottom=0;right=0;collapsible=0;dropTarget=0;fillColor=none;points=[[0,0.5],[1,0.5]];portConstraint=eastwest;" vertex="1" parent="j1e2Vd287yCiI281AwoS-21">
          <mxGeometry y="40" width="60" height="40" as="geometry" />
        </mxCell>
        <mxCell id="j1e2Vd287yCiI281AwoS-25" value="M5" style="shape=partialRectangle;html=1;whiteSpace=wrap;connectable=0;fillColor=none;top=0;left=0;bottom=0;right=0;overflow=hidden;" vertex="1" parent="j1e2Vd287yCiI281AwoS-24">
          <mxGeometry width="60" height="40" as="geometry">
            <mxRectangle width="60" height="40" as="alternateBounds" />
          </mxGeometry>
        </mxCell>
        <mxCell id="j1e2Vd287yCiI281AwoS-26" value="" style="shape=tableRow;horizontal=0;startSize=0;swimlaneHead=0;swimlaneBody=0;top=0;left=0;bottom=0;right=0;collapsible=0;dropTarget=0;fillColor=none;points=[[0,0.5],[1,0.5]];portConstraint=eastwest;" vertex="1" parent="j1e2Vd287yCiI281AwoS-21">
          <mxGeometry y="80" width="60" height="40" as="geometry" />
        </mxCell>
        <mxCell id="j1e2Vd287yCiI281AwoS-27" value="M6" style="shape=partialRectangle;html=1;whiteSpace=wrap;connectable=0;fillColor=none;top=0;left=0;bottom=0;right=0;overflow=hidden;" vertex="1" parent="j1e2Vd287yCiI281AwoS-26">
          <mxGeometry width="60" height="40" as="geometry">
            <mxRectangle width="60" height="40" as="alternateBounds" />
          </mxGeometry>
        </mxCell>
        <mxCell id="j1e2Vd287yCiI281AwoS-28" value="" style="shape=table;html=1;whiteSpace=wrap;startSize=0;container=1;collapsible=0;childLayout=tableLayout;" vertex="1" parent="1">
          <mxGeometry x="430" y="400" width="60" height="120" as="geometry" />
        </mxCell>
        <mxCell id="j1e2Vd287yCiI281AwoS-29" value="" style="shape=tableRow;horizontal=0;startSize=0;swimlaneHead=0;swimlaneBody=0;top=0;left=0;bottom=0;right=0;collapsible=0;dropTarget=0;fillColor=none;points=[[0,0.5],[1,0.5]];portConstraint=eastwest;" vertex="1" parent="j1e2Vd287yCiI281AwoS-28">
          <mxGeometry width="60" height="40" as="geometry" />
        </mxCell>
        <mxCell id="j1e2Vd287yCiI281AwoS-30" value="M7" style="shape=partialRectangle;html=1;whiteSpace=wrap;connectable=0;fillColor=none;top=0;left=0;bottom=0;right=0;overflow=hidden;" vertex="1" parent="j1e2Vd287yCiI281AwoS-29">
          <mxGeometry width="60" height="40" as="geometry">
            <mxRectangle width="60" height="40" as="alternateBounds" />
          </mxGeometry>
        </mxCell>
        <mxCell id="j1e2Vd287yCiI281AwoS-31" value="" style="shape=tableRow;horizontal=0;startSize=0;swimlaneHead=0;swimlaneBody=0;top=0;left=0;bottom=0;right=0;collapsible=0;dropTarget=0;fillColor=none;points=[[0,0.5],[1,0.5]];portConstraint=eastwest;" vertex="1" parent="j1e2Vd287yCiI281AwoS-28">
          <mxGeometry y="40" width="60" height="40" as="geometry" />
        </mxCell>
        <mxCell id="j1e2Vd287yCiI281AwoS-32" value="M8" style="shape=partialRectangle;html=1;whiteSpace=wrap;connectable=0;fillColor=none;top=0;left=0;bottom=0;right=0;overflow=hidden;" vertex="1" parent="j1e2Vd287yCiI281AwoS-31">
          <mxGeometry width="60" height="40" as="geometry">
            <mxRectangle width="60" height="40" as="alternateBounds" />
          </mxGeometry>
        </mxCell>
        <mxCell id="j1e2Vd287yCiI281AwoS-33" value="" style="shape=tableRow;horizontal=0;startSize=0;swimlaneHead=0;swimlaneBody=0;top=0;left=0;bottom=0;right=0;collapsible=0;dropTarget=0;fillColor=none;points=[[0,0.5],[1,0.5]];portConstraint=eastwest;" vertex="1" parent="j1e2Vd287yCiI281AwoS-28">
          <mxGeometry y="80" width="60" height="40" as="geometry" />
        </mxCell>
        <mxCell id="j1e2Vd287yCiI281AwoS-34" value="M9" style="shape=partialRectangle;html=1;whiteSpace=wrap;connectable=0;fillColor=none;top=0;left=0;bottom=0;right=0;overflow=hidden;" vertex="1" parent="j1e2Vd287yCiI281AwoS-33">
          <mxGeometry width="60" height="40" as="geometry">
            <mxRectangle width="60" height="40" as="alternateBounds" />
          </mxGeometry>
        </mxCell>
        <mxCell id="j1e2Vd287yCiI281AwoS-35" style="edgeStyle=none;rounded=0;orthogonalLoop=1;jettySize=auto;html=1;exitX=1;exitY=0.5;exitDx=0;exitDy=0;entryX=0;entryY=0.5;entryDx=0;entryDy=0;" edge="1" parent="1" source="j1e2Vd287yCiI281AwoS-2" target="j1e2Vd287yCiI281AwoS-15">
          <mxGeometry relative="1" as="geometry" />
        </mxCell>
        <mxCell id="j1e2Vd287yCiI281AwoS-36" style="edgeStyle=none;rounded=0;orthogonalLoop=1;jettySize=auto;html=1;exitX=1;exitY=0.5;exitDx=0;exitDy=0;entryX=0;entryY=0.5;entryDx=0;entryDy=0;" edge="1" parent="1" source="j1e2Vd287yCiI281AwoS-2" target="j1e2Vd287yCiI281AwoS-17">
          <mxGeometry relative="1" as="geometry" />
        </mxCell>
        <mxCell id="j1e2Vd287yCiI281AwoS-37" style="edgeStyle=none;rounded=0;orthogonalLoop=1;jettySize=auto;html=1;exitX=1;exitY=0.5;exitDx=0;exitDy=0;entryX=0;entryY=0.5;entryDx=0;entryDy=0;" edge="1" parent="1" source="j1e2Vd287yCiI281AwoS-2" target="j1e2Vd287yCiI281AwoS-19">
          <mxGeometry relative="1" as="geometry" />
        </mxCell>
        <mxCell id="j1e2Vd287yCiI281AwoS-38" style="edgeStyle=none;rounded=0;orthogonalLoop=1;jettySize=auto;html=1;exitX=1;exitY=0.5;exitDx=0;exitDy=0;entryX=0;entryY=0.5;entryDx=0;entryDy=0;" edge="1" parent="1" source="j1e2Vd287yCiI281AwoS-6" target="j1e2Vd287yCiI281AwoS-22">
          <mxGeometry relative="1" as="geometry" />
        </mxCell>
        <mxCell id="j1e2Vd287yCiI281AwoS-39" style="edgeStyle=none;rounded=0;orthogonalLoop=1;jettySize=auto;html=1;exitX=1;exitY=0.5;exitDx=0;exitDy=0;entryX=0;entryY=0.5;entryDx=0;entryDy=0;" edge="1" parent="1" source="j1e2Vd287yCiI281AwoS-6" target="j1e2Vd287yCiI281AwoS-24">
          <mxGeometry relative="1" as="geometry" />
        </mxCell>
        <mxCell id="j1e2Vd287yCiI281AwoS-40" style="edgeStyle=none;rounded=0;orthogonalLoop=1;jettySize=auto;html=1;exitX=1;exitY=0.5;exitDx=0;exitDy=0;entryX=0;entryY=0.5;entryDx=0;entryDy=0;" edge="1" parent="1" source="j1e2Vd287yCiI281AwoS-6" target="j1e2Vd287yCiI281AwoS-26">
          <mxGeometry relative="1" as="geometry" />
        </mxCell>
        <mxCell id="j1e2Vd287yCiI281AwoS-41" style="edgeStyle=none;rounded=0;orthogonalLoop=1;jettySize=auto;html=1;exitX=1;exitY=0.5;exitDx=0;exitDy=0;entryX=0;entryY=0.5;entryDx=0;entryDy=0;" edge="1" parent="1" source="j1e2Vd287yCiI281AwoS-10" target="j1e2Vd287yCiI281AwoS-29">
          <mxGeometry relative="1" as="geometry" />
        </mxCell>
        <mxCell id="j1e2Vd287yCiI281AwoS-42" style="edgeStyle=none;rounded=0;orthogonalLoop=1;jettySize=auto;html=1;exitX=1;exitY=0.5;exitDx=0;exitDy=0;entryX=0;entryY=0.5;entryDx=0;entryDy=0;" edge="1" parent="1" source="j1e2Vd287yCiI281AwoS-10" target="j1e2Vd287yCiI281AwoS-31">
          <mxGeometry relative="1" as="geometry" />
        </mxCell>
        <mxCell id="j1e2Vd287yCiI281AwoS-43" style="edgeStyle=none;rounded=0;orthogonalLoop=1;jettySize=auto;html=1;exitX=1;exitY=0.5;exitDx=0;exitDy=0;entryX=-0.011;entryY=0.35;entryDx=0;entryDy=0;entryPerimeter=0;" edge="1" parent="1" source="j1e2Vd287yCiI281AwoS-10" target="j1e2Vd287yCiI281AwoS-33">
          <mxGeometry relative="1" as="geometry" />
        </mxCell>
        <mxCell id="j1e2Vd287yCiI281AwoS-46" style="edgeStyle=none;rounded=0;orthogonalLoop=1;jettySize=auto;html=1;exitX=1;exitY=0.5;exitDx=0;exitDy=0;entryX=0;entryY=0.5;entryDx=0;entryDy=0;strokeColor=#6666FF;" edge="1" parent="1" source="j1e2Vd287yCiI281AwoS-44" target="j1e2Vd287yCiI281AwoS-2">
          <mxGeometry relative="1" as="geometry" />
        </mxCell>
        <mxCell id="j1e2Vd287yCiI281AwoS-47" style="edgeStyle=none;rounded=0;orthogonalLoop=1;jettySize=auto;html=1;exitX=1;exitY=0.5;exitDx=0;exitDy=0;strokeColor=#6666FF;" edge="1" parent="1" source="j1e2Vd287yCiI281AwoS-44" target="j1e2Vd287yCiI281AwoS-6">
          <mxGeometry relative="1" as="geometry" />
        </mxCell>
        <mxCell id="j1e2Vd287yCiI281AwoS-48" style="edgeStyle=none;rounded=0;orthogonalLoop=1;jettySize=auto;html=1;exitX=1;exitY=0.5;exitDx=0;exitDy=0;entryX=0;entryY=0.5;entryDx=0;entryDy=0;strokeColor=#6666FF;" edge="1" parent="1" source="j1e2Vd287yCiI281AwoS-44" target="j1e2Vd287yCiI281AwoS-10">
          <mxGeometry relative="1" as="geometry" />
        </mxCell>
        <mxCell id="j1e2Vd287yCiI281AwoS-44" value="Broker1" style="rounded=1;whiteSpace=wrap;html=1;strokeWidth=2;fillWeight=4;hachureGap=8;hachureAngle=45;fillColor=#dae8fc;sketch=1;strokeColor=#6c8ebf;" vertex="1" parent="1">
          <mxGeometry x="30" y="280" width="90" height="30" as="geometry" />
        </mxCell>
        <mxCell id="j1e2Vd287yCiI281AwoS-49" style="edgeStyle=none;rounded=0;orthogonalLoop=1;jettySize=auto;html=1;exitX=1;exitY=0.5;exitDx=0;exitDy=0;entryX=0;entryY=0.5;entryDx=0;entryDy=0;strokeColor=#FF0080;" edge="1" parent="1" source="j1e2Vd287yCiI281AwoS-45" target="j1e2Vd287yCiI281AwoS-6">
          <mxGeometry relative="1" as="geometry" />
        </mxCell>
        <mxCell id="j1e2Vd287yCiI281AwoS-50" style="edgeStyle=none;rounded=0;orthogonalLoop=1;jettySize=auto;html=1;exitX=1;exitY=0.5;exitDx=0;exitDy=0;entryX=0;entryY=0.5;entryDx=0;entryDy=0;strokeColor=#FF0080;" edge="1" parent="1" source="j1e2Vd287yCiI281AwoS-45" target="j1e2Vd287yCiI281AwoS-10">
          <mxGeometry relative="1" as="geometry" />
        </mxCell>
        <mxCell id="j1e2Vd287yCiI281AwoS-45" value="Broker2" style="rounded=1;whiteSpace=wrap;html=1;strokeWidth=2;fillWeight=4;hachureGap=8;hachureAngle=45;fillColor=#dae8fc;sketch=1;strokeColor=#6c8ebf;" vertex="1" parent="1">
          <mxGeometry x="30" y="360" width="95" height="30" as="geometry" />
        </mxCell>
        <mxCell id="j1e2Vd287yCiI281AwoS-51" value="" style="rounded=0;whiteSpace=wrap;html=1;fillColor=#dae8fc;strokeColor=#6c8ebf;dashed=1;shadow=0;" vertex="1" parent="1">
          <mxGeometry x="414" y="60" width="120" height="80" as="geometry" />
        </mxCell>
        <mxCell id="j1e2Vd287yCiI281AwoS-52" value="Text" style="text;html=1;strokeColor=none;fillColor=none;align=center;verticalAlign=middle;whiteSpace=wrap;rounded=0;" vertex="1" parent="1">
          <mxGeometry x="550" y="85" width="60" height="30" as="geometry" />
        </mxCell>
      </root>
    </mxGraphModel>
  </diagram>
</mxfile>
